<?xml version="1.0" encoding="UTF-8"?>
<svg clip-rule="evenodd" fill-rule="evenodd" stroke-linejoin="round" stroke-miterlimit="2" version="1.1" viewBox="0 0 152 152" xml:space="preserve" xmlns="http://www.w3.org/2000/svg"><circle cx="75.585" cy="75.585" r="75.585" fill="url(#_Radial1)"/><clipPath id="_clip2"></clipPath><g clip-path="url(#_clip2)"><path d="m75.585 17.097c11.94-0 21.635 9.694 21.635 21.635s-9.695 21.635-21.635 21.635c-11.941 0-21.635-9.694-21.635-21.635s9.694-21.635 21.635-21.635zm-0 5.21c-9.066 0-16.425 7.36-16.425 16.425s7.359 16.425 16.425 16.425c9.065-0 16.424-7.36 16.424-16.425s-7.359-16.425-16.424-16.425z"/><path d="m75.585 27.343c6.285 0 11.388 5.103 11.388 11.389s-5.103 11.389-11.388 11.389c-6.286-0-11.389-5.103-11.389-11.389s5.103-11.389 11.389-11.389zm-0 5.21c-3.41 0-6.179 2.769-6.179 6.179s2.769 6.179 6.179 6.179 6.178-2.769 6.178-6.179-2.768-6.179-6.178-6.179z"/><path d="m112.44 53.95c11.941-0 21.635 9.694 21.635 21.635 0 11.94-9.694 21.635-21.635 21.635s-21.635-9.695-21.635-21.635c0-11.941 9.694-21.635 21.635-21.635zm0 5.21c-9.065-0-16.425 7.359-16.425 16.425 0 9.065 7.36 16.424 16.425 16.424s16.425-7.359 16.425-16.424c-0-9.066-7.36-16.425-16.425-16.425z"/><path d="m112.44 64.196c6.286-0 11.389 5.103 11.389 11.389-0 6.285-5.103 11.388-11.389 11.388s-11.389-5.103-11.389-11.388c0-6.286 5.103-11.389 11.389-11.389zm0 5.21c-3.41-0-6.178 2.769-6.178 6.179s2.768 6.178 6.178 6.178 6.179-2.768 6.179-6.178-2.769-6.179-6.179-6.179z"/><path d="m75.585 90.802c11.94 0 21.635 9.694 21.635 21.635s-9.695 21.635-21.635 21.635c-11.941 0-21.635-9.694-21.635-21.635s9.694-21.635 21.635-21.635zm-0 5.21c-9.066 0-16.425 7.36-16.425 16.425s7.359 16.425 16.425 16.425c9.065-0 16.424-7.36 16.424-16.425s-7.359-16.425-16.424-16.425z"/><path d="m75.585 101.05c6.285 0 11.388 5.103 11.388 11.389s-5.103 11.389-11.388 11.389c-6.286-0-11.389-5.103-11.389-11.389s5.103-11.389 11.389-11.389zm-0 5.211c-3.41-0-6.179 2.768-6.179 6.178s2.769 6.179 6.179 6.179 6.178-2.769 6.178-6.179-2.768-6.178-6.178-6.178z"/><path d="m38.732 53.95c11.941-0 21.635 9.694 21.635 21.635 0 11.94-9.694 21.635-21.635 21.635s-21.635-9.695-21.635-21.635c-0-11.941 9.694-21.635 21.635-21.635zm-0 5.21c-9.065-0-16.425 7.359-16.425 16.425 0 9.065 7.36 16.424 16.425 16.424s16.425-7.359 16.425-16.424c-0-9.066-7.36-16.425-16.425-16.425z"/><path d="m38.732 64.196c6.286-0 11.389 5.103 11.389 11.389-0 6.285-5.103 11.388-11.389 11.388s-11.389-5.103-11.389-11.388c0-6.286 5.103-11.389 11.389-11.389zm-0 5.21c-3.41-0-6.179 2.769-6.179 6.179s2.769 6.178 6.179 6.178 6.179-2.768 6.179-6.178-2.769-6.179-6.179-6.179z"/></g><defs><radialGradient id="_Radial1" cx="0" cy="0" r="1" gradientTransform="matrix(-81.196 -81.196 81.196 -81.196 114.32 116.87)" gradientUnits="userSpaceOnUse"><stop stop-color="#ff2088" offset="0"/><stop stop-color="#c24bac" offset=".44"/><stop stop-color="#37aeff" offset="1"/></radialGradient></defs></svg>
